<svg width="24" height="24" viewBox="0 0 24 24" fill="none" xmlns="http://www.w3.org/2000/svg">
<path d="M20.0083 2.90039H6.12959C5.93068 2.90039 5.73991 2.97941 5.59926 3.12006C5.45861 3.26071 5.37959 3.45148 5.37959 3.65039C5.37959 3.8493 5.45861 4.04007 5.59926 4.18072C5.73991 4.32137 5.93068 4.40039 6.12959 4.40039H18.5376L3.14834 19.7904C3.07395 19.8589 3.01417 19.9417 2.97259 20.0338C2.93102 20.126 2.90851 20.2256 2.90641 20.3267C2.90432 20.4278 2.92268 20.5282 2.9604 20.6221C2.99813 20.7159 3.05443 20.8011 3.12592 20.8726C3.19741 20.9441 3.28262 21.0004 3.37643 21.0381C3.47024 21.0758 3.5707 21.0942 3.67179 21.0921C3.77287 21.09 3.87249 21.0675 3.96465 21.0259C4.05681 20.9843 4.13962 20.9245 4.20809 20.8501L19.5981 5.46014V17.8689C19.5981 18.0678 19.6771 18.2586 19.8178 18.3992C19.9584 18.5399 20.1492 18.6189 20.3481 18.6189C20.547 18.6189 20.7378 18.5399 20.8784 18.3992C21.0191 18.2586 21.0981 18.0678 21.0981 17.8689V3.99089C21.0977 3.70192 20.9828 3.42489 20.7785 3.22049C20.5743 3.01609 20.2973 2.90099 20.0083 2.90039Z" fill="white"/>
</svg>
