<svg width="79" height="112" viewBox="0 0 79 112" fill="none" xmlns="http://www.w3.org/2000/svg">
<path d="M79 112L0 0H43.0449L79 49V112Z" fill="white"/>
<path d="M46.2952 27.2546L44.2247 32.0074L44.2846 32.0903L49.4546 31.6276L51.2852 34.1612L43.64 34.7562L40.7265 41.9003L38.8622 39.32L40.9117 34.5273L40.8518 34.4444L35.6578 34.8849L33.8011 32.315L41.5062 31.8029L44.4571 24.7106L46.2952 27.2546ZM52.3109 35.5808L53.928 37.8191L47.2546 42.6407L47.3183 42.7287L57.3046 42.4926L58.7234 44.4562L48.1123 52.1228L46.4914 49.8793L53.1699 45.054L53.1138 44.9763L43.1035 45.1903L41.6998 43.2474L52.3109 35.5808ZM57.9209 47.2421L59.7706 45.9057L66.0671 54.6205L64.2174 55.9569L61.8702 52.7083L53.1088 59.0384L51.5066 56.8209L60.2681 50.4907L57.9209 47.2421Z" fill="#FC0233"/>
</svg>
