<svg width="76" height="45" viewBox="0 0 76 45" fill="none" xmlns="http://www.w3.org/2000/svg">
<g clip-path="url(#clip0_41_316)">
<path d="M24.5768 23.5251C21.9665 25.7224 17.8429 25.7224 15.2282 23.5251C15.0413 23.3998 14.8147 23.3478 14.5919 23.3791C14.369 23.4104 14.1656 23.5228 14.0204 23.6947C13.8753 23.8667 13.7987 24.0862 13.8053 24.3111C13.8119 24.5361 13.9013 24.7507 14.0563 24.9138C15.6932 26.2967 17.7669 27.0554 19.9098 27.0554C22.0527 27.0554 24.1264 26.2967 25.7633 24.9138C25.8589 24.8376 25.9383 24.7431 25.9967 24.6357C26.0551 24.5283 26.0913 24.4103 26.1033 24.2887C26.1153 24.167 26.1028 24.0442 26.0665 23.9275C26.0302 23.8108 25.9708 23.7025 25.892 23.6091C25.8131 23.5158 25.7163 23.4391 25.6073 23.3838C25.4983 23.3285 25.3793 23.2956 25.2573 23.2871C25.1354 23.2786 25.013 23.2946 24.8974 23.3343C24.7817 23.3739 24.6752 23.4363 24.5841 23.5178L24.5768 23.5251ZM58.5583 23.5837C55.945 25.7898 51.82 25.7898 49.2111 23.5837C49.025 23.4355 48.7885 23.3656 48.5518 23.3889C48.315 23.4123 48.0967 23.527 47.9431 23.7087C47.7896 23.8905 47.713 24.1249 47.7296 24.3622C47.7462 24.5996 47.8546 24.8211 48.0319 24.9797C49.6681 26.3636 51.7417 27.123 53.8847 27.123C56.0276 27.123 58.1013 26.3636 59.7375 24.9797C59.9147 24.8211 60.0232 24.5996 60.0398 24.3622C60.0563 24.1249 59.9797 23.8905 59.8262 23.7087C59.6727 23.527 59.4544 23.4123 59.2176 23.3889C58.9808 23.3656 58.7443 23.4355 58.5583 23.5837Z" fill="white"/>
<path d="M67.8776 20.222C67.63 20.222 67.4162 20.2337 67.2228 20.2498C67.2418 20.014 67.2536 19.7782 67.2594 19.5394L67.3107 19.409C67.9098 17.8856 68.588 16.16 68.588 14.3084C68.588 6.47591 62.383 0.78939 53.8327 0.78939C45.3366 0.78939 39.1842 6.47591 39.1842 14.3084C39.1842 16.1776 39.7819 17.9046 40.4074 19.5174C40.4074 19.7606 40.4249 20.0008 40.444 20.2411C40.277 20.2293 40.0954 20.222 39.8947 20.222C37.6007 20.222 33.3512 21.1712 33.6369 28.2669L33.6779 28.2743C34.214 28.3197 34.715 28.3416 35.1852 28.3416C39.4332 28.3416 41.0446 26.5662 41.5807 24.7C42.3761 26.461 43.5406 28.0306 44.9953 29.3026C42.397 30.9502 40.2232 33.1862 38.6496 35.8299C38.6054 35.8699 38.5652 35.9141 38.5294 35.9618C38.5068 36.0087 38.4886 36.0578 38.4752 36.1082C37.8126 37.3065 37.2821 38.5732 36.8932 39.8861C36.5045 38.5783 35.975 37.3165 35.3141 36.1229C35.3004 36.0681 35.2818 36.0147 35.2584 35.9632C35.2203 35.9099 35.1766 35.8608 35.1281 35.8167C33.5351 33.1563 31.3337 30.9118 28.7047 29.2674C31.3802 26.9456 33.0285 23.6596 33.2897 20.1268C33.2897 20.1165 33.3058 20.1107 33.3087 20.099C35.8385 12.6283 35.2409 7.77962 35.213 7.57601V7.52767C34.7531 5.07552 33.0685 3.02621 30.3424 1.60091C25.2272 -1.0695 18.0729 -0.927407 14.3756 0.736656C9.48305 2.93392 6.61195 0.826011 6.49477 0.736656C6.36477 0.635134 6.20972 0.57068 6.04607 0.550126C5.88241 0.529572 5.71624 0.553684 5.56518 0.619906C5.41411 0.686128 5.28378 0.791992 5.188 0.926276C5.09222 1.06056 5.03456 1.21826 5.02113 1.38265L4.61244 6.48763C4.58168 6.73519 3.89174 12.6312 6.42006 20.096C6.43764 20.1502 6.48598 20.1839 6.51381 20.2337C6.80196 23.7217 8.4421 26.9589 11.0841 29.2542C8.45518 30.907 6.2566 33.1608 4.66957 35.8299C4.62375 35.8697 4.58249 35.9144 4.54652 35.9632C4.52477 36.0104 4.50713 36.0595 4.49379 36.1097C3.21645 38.3905 2.28481 41.1327 2.01381 44.4798C2.00398 44.5995 2.01782 44.7199 2.05454 44.8342C2.09126 44.9485 2.15014 45.0545 2.22781 45.146C2.30548 45.2376 2.40043 45.3129 2.50722 45.3677C2.61402 45.4226 2.73058 45.4559 2.85024 45.4657H2.92348C3.15289 45.4654 3.37383 45.3789 3.54257 45.2235C3.7113 45.0681 3.81552 44.8549 3.83461 44.6263C4.01155 42.2303 4.64709 39.8905 5.70668 37.7342L9.77748 40.1834V44.5589C9.77748 44.8013 9.87378 45.0338 10.0452 45.2053C10.2166 45.3767 10.4491 45.473 10.6915 45.473C10.934 45.473 11.1665 45.3767 11.3379 45.2053C11.5093 45.0338 11.6056 44.8013 11.6056 44.5589V39.6634C11.606 39.506 11.5658 39.3511 11.4888 39.2138C11.4118 39.0765 11.3007 38.9615 11.1662 38.8797L6.59877 36.1361C8.11993 33.7814 10.1725 31.8166 12.5914 30.3997C14.7557 31.8151 17.2842 32.5718 19.8702 32.578C22.4561 32.5842 24.9883 31.8398 27.1593 30.4349C29.5774 31.8538 31.6356 33.8112 33.174 36.1551L28.6461 38.8797C28.5115 38.9613 28.4003 39.0764 28.3233 39.2137C28.2463 39.3511 28.2061 39.506 28.2067 39.6634V44.5545C28.2161 44.7904 28.3165 45.0135 28.4867 45.1771C28.657 45.3407 28.8839 45.432 29.12 45.432C29.3561 45.432 29.583 45.3407 29.7533 45.1771C29.9235 45.0135 30.0239 44.7904 30.0333 44.5545V40.179L34.0807 37.743C35.1544 39.8926 35.7973 42.2314 35.9733 44.6278C35.9871 44.7807 36.0398 44.9274 36.1265 45.0541C36.2132 45.1808 36.3309 45.2832 36.4684 45.3514L36.4992 45.369C36.5767 45.4032 36.6585 45.4268 36.7423 45.4393C36.7746 45.4393 36.8009 45.4627 36.8331 45.4657H36.9562C36.9796 45.4657 36.9987 45.4495 37.0206 45.4466C37.2275 45.4226 37.4198 45.328 37.5652 45.1789C37.7106 45.0298 37.8002 44.8352 37.819 44.6278C37.9969 42.2314 38.6323 39.8914 39.6911 37.7342L43.7633 40.1849V44.5604C43.7633 44.8028 43.8596 45.0353 44.031 45.2067C44.2025 45.3782 44.435 45.4744 44.6774 45.4744C44.9198 45.4744 45.1523 45.3782 45.3237 45.2067C45.4951 45.0353 45.5914 44.8028 45.5914 44.5604V39.6634C45.5916 39.5061 45.5513 39.3513 45.4743 39.2141C45.3973 39.0768 45.2863 38.9617 45.152 38.8797L40.5905 36.1346C42.0925 33.8065 44.1156 31.8596 46.4997 30.4481C48.6797 31.8793 51.2307 32.6418 53.8385 32.6418C56.4464 32.6418 58.9973 31.8793 61.1774 30.4481C63.5833 31.865 65.6312 33.8161 67.1627 36.1507L62.6349 38.8753C62.5003 38.957 62.3891 39.072 62.312 39.2093C62.235 39.3467 62.1949 39.5016 62.1955 39.659V44.5501C62.1955 44.7926 62.2918 45.0251 62.4632 45.1965C62.6346 45.3679 62.8671 45.4642 63.1095 45.4642C63.3519 45.4642 63.5844 45.3679 63.7559 45.1965C63.9273 45.0251 64.0236 44.7926 64.0236 44.5501V40.179L68.0709 37.743C69.1434 39.893 69.7858 42.2316 69.9621 44.6278C69.9815 44.8694 70.0961 45.0935 70.2807 45.2506C70.4653 45.4077 70.7048 45.4851 70.9464 45.4657C71.1881 45.4462 71.4121 45.3316 71.5692 45.147C71.7264 44.9624 71.8037 44.7229 71.7843 44.4813C71.5148 41.1356 70.5875 38.3993 69.3087 36.1317C69.2948 36.0763 69.2756 36.0224 69.2516 35.9705C69.2134 35.9172 69.1697 35.8681 69.1212 35.8241C67.5336 33.1654 65.3383 30.9209 62.7155 29.2747C64.1938 27.9759 65.3702 26.3696 66.1622 24.5682C66.6574 26.4813 68.2482 28.3416 72.5988 28.3416C73.069 28.3416 73.57 28.3197 74.1061 28.2743L74.1471 28.2669C74.421 21.1712 70.1715 20.222 67.8776 20.222ZM39.4201 25.0721C38.7638 25.9818 37.444 26.4637 35.4928 26.5106C35.6261 25.0369 36.048 23.9237 36.7526 23.1898C37.6579 22.2479 38.9601 22.0487 39.8917 22.0487H39.9284C40.0558 22.9715 40.0426 24.2108 39.4201 25.0721ZM6.43031 6.67953L6.73207 2.92074C8.32436 3.56966 11.2379 4.15414 15.1271 2.40365C18.4494 0.906577 25.0163 0.878746 29.4957 3.22103C31.7296 4.39291 33.0465 5.93832 33.4113 7.83382C33.4464 8.1517 33.8097 11.9544 32.1354 17.7611L28.4411 12.4876C28.3228 12.3191 28.1513 12.1954 27.954 12.1364C27.7568 12.0774 27.5455 12.0866 27.3541 12.1624C27.3146 12.1785 23.3991 13.7284 19.8234 13.7562C16.3502 13.7284 12.423 12.1785 12.3834 12.1624C12.1921 12.0868 11.9808 12.0778 11.7837 12.1368C11.5865 12.1958 11.4149 12.3193 11.2965 12.4876L7.61098 17.7523C5.87074 11.5413 6.42006 6.76302 6.43031 6.67953ZM8.32582 19.9159L12.3878 14.1136C13.7428 14.5882 16.8834 15.5623 19.9259 15.5858C22.8776 15.5623 25.9962 14.5897 27.3468 14.1136L31.4747 20.0096C31.2499 22.9324 29.9272 25.6617 27.7723 27.649C25.6175 29.6364 22.7903 30.7345 19.8589 30.7226C16.9275 30.7108 14.1093 29.5898 11.9706 27.585C9.83196 25.5803 8.53136 22.8403 8.33022 19.9159H8.32582ZM53.8327 2.61751C61.3239 2.61751 66.7614 7.535 66.7614 14.3084C66.7614 15.6268 66.3087 16.9452 65.8151 18.2166C62.4459 17.2015 56.1471 14.6292 54.7687 9.32943C54.7178 9.13463 54.6041 8.96204 54.4452 8.83837C54.2863 8.7147 54.0911 8.64686 53.8898 8.64535H53.8385C53.6374 8.64678 53.4423 8.71441 53.2834 8.83779C53.1246 8.96117 53.0108 9.13343 52.9596 9.32796C51.5871 14.5911 45.2604 17.1751 41.8693 18.2005C41.4079 16.9452 41.0197 15.6312 41.0197 14.3084C41.0094 7.535 46.4015 2.61751 53.8327 2.61751ZM53.8327 30.8172C50.8898 30.8113 48.0587 29.6891 45.9109 27.6773C43.7631 25.6654 42.4585 22.9136 42.2604 19.9774C45.9723 18.8846 51.4479 16.5716 53.8605 11.9998C56.2672 16.6009 61.7179 18.9066 65.4137 19.992C65.2117 22.927 63.9042 25.6762 61.7549 27.6852C59.6057 29.6942 56.7746 30.8134 53.8327 30.8172ZM68.3478 25.0721C67.7252 24.2108 67.7135 22.9686 67.841 22.0487H67.8776C68.8092 22.0487 70.11 22.2479 71.0167 23.1898C71.7213 23.9222 72.1417 25.0369 72.275 26.5106C70.3253 26.4637 69.004 25.9818 68.3478 25.0721Z" fill="white"/>
</g>
<defs>
<clipPath id="clip0_41_316">
<rect width="75" height="45" fill="white" transform="translate(0.727783)"/>
</clipPath>
</defs>
</svg>
