<svg width="73" height="45" viewBox="0 0 73 45" fill="none" xmlns="http://www.w3.org/2000/svg">
<path d="M30.9051 44.7097H3.32274C1.49041 44.7097 0 43.2302 0 41.4112V36.7365C0 27.3938 7.67647 19.7932 17.1139 19.7932C26.5513 19.7932 34.2278 27.3938 34.2278 36.7365V41.4112C34.2278 43.2301 32.7374 44.7097 30.9051 44.7097ZM17.1139 21.8259C8.79777 21.8259 2.03226 28.5151 2.03226 36.7369V41.4117C2.03226 42.1098 2.6112 42.6779 3.32274 42.6779H30.9045C31.6161 42.6779 32.195 42.1098 32.195 41.4117V36.7369C32.1955 28.5151 25.43 21.8259 17.1139 21.8259ZM16.7607 18.6058C11.5827 18.6058 7.36935 14.4327 7.36935 9.30241C7.36935 4.17273 11.5823 0 16.7608 0C21.9396 0 26.1525 4.17311 26.1525 9.30291C26.1525 14.4331 21.9391 18.6058 16.7608 18.6058H16.7607ZM16.7607 2.03226C12.703 2.03226 9.40161 5.29403 9.40161 9.30291C9.40161 13.3124 12.703 16.5741 16.7607 16.5741C20.8187 16.5741 24.1201 13.3123 24.1201 9.30291C24.1201 5.29403 20.8187 2.03226 16.7608 2.03226H16.7607Z" fill="white"/>
<path d="M69.1328 44.7097H41.5505C39.7182 44.7097 38.2278 43.2302 38.2278 41.4112V36.7365C38.2278 27.3938 45.9043 19.7932 55.3417 19.7932C64.7791 19.7932 72.4556 27.3938 72.4556 36.7365V41.4112C72.4556 43.2301 70.9652 44.7097 69.1328 44.7097ZM55.3417 21.8259C47.0256 21.8259 40.26 28.5151 40.26 36.7369V41.4117C40.26 42.1098 40.839 42.6779 41.5505 42.6779H69.1323C69.8439 42.6779 70.4228 42.1098 70.4228 41.4117V36.7369C70.4233 28.5151 63.6578 21.8259 55.3417 21.8259ZM54.9885 18.6058C49.8105 18.6058 45.5971 14.4327 45.5971 9.30241C45.5971 4.17273 49.8101 0 54.9886 0C60.1674 0 64.3803 4.17311 64.3803 9.30291C64.3803 14.4331 60.1669 18.6058 54.9886 18.6058H54.9885ZM54.9885 2.03226C50.9308 2.03226 47.6294 5.29403 47.6294 9.30291C47.6294 13.3124 50.9308 16.5741 54.9885 16.5741C59.0465 16.5741 62.3479 13.3123 62.3479 9.30291C62.3479 5.29403 59.0465 2.03226 54.9886 2.03226H54.9885Z" fill="white"/>
</svg>
