<svg width="63" height="55" viewBox="0 0 63 55" fill="none" xmlns="http://www.w3.org/2000/svg">
<g clip-path="url(#clip0_41_255)">
<path d="M56.6016 14.3806H44.2964V16.3361L44.2959 16.3449H56.6016C57.7745 16.3449 58.8996 16.8101 59.73 17.6385C60.5604 18.4669 61.0284 19.5909 61.0312 20.7638V48.2589C61.0284 49.4318 60.5604 50.5558 59.73 51.3841C58.8996 52.2125 57.7745 52.6777 56.6016 52.6777H6.39844C5.22548 52.6777 4.10041 52.2125 3.27 51.3841C2.43958 50.5558 1.97162 49.4318 1.96875 48.2589V20.7638C1.97162 19.5909 2.43958 18.4669 3.27 17.6385C4.10041 16.8101 5.22548 16.3449 6.39844 16.3449H18.7031V14.3806H6.39844C5.55918 14.3796 4.72793 14.5439 3.95216 14.8641C3.17639 15.1843 2.4713 15.6542 1.87715 16.247C1.28299 16.8397 0.811406 17.5437 0.489324 18.3187C0.167242 19.0937 0.000968936 19.9245 0 20.7638L0 48.2589C0.00103352 49.0981 0.167354 49.9289 0.489465 50.7038C0.811576 51.4788 1.28317 52.1827 1.87732 52.7754C2.47147 53.3681 3.17654 53.8379 3.95227 54.1581C4.72801 54.4783 5.55922 54.6426 6.39844 54.6416H56.6016C57.4408 54.6426 58.272 54.4783 59.0477 54.1581C59.8235 53.8379 60.5285 53.3681 61.1227 52.7754C61.7168 52.1827 62.1884 51.4788 62.5105 50.7038C62.8326 49.9289 62.999 49.0981 63 48.2589V20.7638C62.999 19.9245 62.8328 19.0937 62.5107 18.3187C62.1886 17.5437 61.717 16.8397 61.1229 16.247C60.5287 15.6542 59.8236 15.1843 59.0478 14.8641C58.2721 14.5439 57.4408 14.3796 56.6016 14.3806Z" fill="white"/>
<path d="M20.6714 14.1268V16.3367C20.6727 16.8839 20.8601 17.4144 21.2027 17.841C21.5454 18.2676 22.0229 18.565 22.557 18.6844C22.6111 18.8232 22.6685 18.961 22.7292 19.0979C22.4361 19.5596 22.3092 20.1075 22.3692 20.6511C22.4292 21.1947 22.6727 21.7017 23.0595 22.0884L24.6261 23.6506C25.0145 24.0374 25.5228 24.2808 26.0677 24.3409C26.6125 24.401 27.1616 24.2742 27.625 23.9813C27.7612 24.0414 27.899 24.0983 28.0384 24.1521C28.1594 24.6861 28.4582 25.163 28.8859 25.5048C29.3135 25.8466 29.8446 26.033 30.3921 26.0333H32.6069C33.1545 26.0331 33.6857 25.8468 34.1135 25.505C34.5412 25.1632 34.8401 24.6861 34.9611 24.1521C35.0999 24.0983 35.2377 24.0414 35.3745 23.9813C35.8379 24.2742 36.387 24.401 36.9318 24.3409C37.4767 24.2808 37.985 24.0374 38.3734 23.6506L39.9391 22.0884C40.3261 21.7018 40.5698 21.1948 40.6301 20.6511C40.6903 20.1073 40.5634 19.5593 40.2703 19.0974C40.3307 18.9612 40.3879 18.8235 40.4421 18.6844C40.9761 18.565 41.4536 18.2676 41.7963 17.841C42.1389 17.4144 42.3263 16.8839 42.3276 16.3367V14.1268C42.3264 13.5795 42.1391 13.0489 41.7964 12.6222C41.4538 12.1954 40.9762 11.8979 40.4421 11.7785C40.3879 11.6397 40.3305 11.5021 40.2698 11.3656C40.563 10.9038 40.6901 10.3558 40.63 9.81207C40.57 9.26834 40.3264 8.7613 39.9395 8.37457L38.3729 6.81237C37.9845 6.42555 37.4762 6.18219 36.9313 6.12218C36.3864 6.06218 35.8373 6.18909 35.374 6.48211C35.2375 6.42173 35.0997 6.36464 34.9606 6.31083C34.8396 5.77698 34.5409 5.30007 34.1133 4.95828C33.6858 4.61649 33.1548 4.43011 32.6074 4.42969H30.3926C29.845 4.42988 29.3138 4.61616 28.8861 4.95797C28.4583 5.29978 28.1594 5.77682 28.0384 6.31083C27.8997 6.36464 27.7618 6.42173 27.625 6.48211C27.1617 6.18918 26.6126 6.06232 26.0678 6.12232C25.5229 6.18232 25.0146 6.42563 24.6261 6.81237L23.0605 8.37457C22.6734 8.76118 22.4297 9.26816 22.3695 9.8119C22.3092 10.3556 22.4361 10.9037 22.7292 11.3656C22.6688 11.5021 22.6116 11.6399 22.5574 11.779C22.0235 11.8984 21.546 12.1957 21.2034 12.6223C20.8608 13.0488 20.6733 13.5792 20.6719 14.1263L20.6714 14.1268ZM22.6401 14.1268C22.6402 14.0687 22.6517 14.0111 22.674 13.9575C22.6963 13.9038 22.729 13.8551 22.7701 13.814C22.8112 13.773 22.86 13.7405 22.9137 13.7183C22.9674 13.6961 23.025 13.6847 23.0831 13.6848H24.0394C24.2338 12.7502 24.6037 11.861 25.1296 11.0644L24.4519 10.3881C24.4107 10.3471 24.3781 10.2984 24.3558 10.2448C24.3335 10.1912 24.322 10.1337 24.322 10.0756C24.322 10.0175 24.3335 9.95998 24.3558 9.90635C24.3781 9.85271 24.4107 9.80401 24.4519 9.76303L26.018 8.20083C26.1012 8.11784 26.2138 8.07124 26.3313 8.07124C26.4488 8.07124 26.5614 8.11784 26.6446 8.20083L27.3223 8.87709C28.1215 8.35215 29.0128 7.98308 29.9491 7.78936V6.8355C29.9492 6.77739 29.9607 6.71987 29.983 6.66621C30.0053 6.61255 30.0379 6.56381 30.0791 6.52277C30.1202 6.48172 30.169 6.44919 30.2227 6.42701C30.2764 6.40483 30.334 6.39345 30.3921 6.39352H32.6069C32.665 6.39345 32.7226 6.40483 32.7763 6.42701C32.83 6.44919 32.8788 6.48172 32.92 6.52277C32.9611 6.56381 32.9937 6.61255 33.016 6.66621C33.0383 6.71987 33.0498 6.77739 33.0499 6.8355V7.78936C33.9863 7.98308 34.8775 8.35215 35.6767 8.87709L36.3544 8.20083C36.4376 8.11784 36.5503 8.07124 36.6677 8.07124C36.7852 8.07124 36.8979 8.11784 36.981 8.20083L38.5471 9.76352C38.5883 9.8045 38.621 9.8532 38.6433 9.90684C38.6655 9.96047 38.677 10.018 38.677 10.0761C38.677 10.1341 38.6655 10.1917 38.6433 10.2453C38.621 10.2989 38.5883 10.3476 38.5471 10.3886L37.8689 11.0644C38.3948 11.861 38.7648 12.7502 38.9591 13.6848H39.9164C39.9745 13.6847 40.0321 13.6961 40.0858 13.7183C40.1395 13.7405 40.1883 13.773 40.2294 13.814C40.2706 13.8551 40.3032 13.9038 40.3255 13.9575C40.3478 14.0111 40.3593 14.0687 40.3594 14.1268V16.3367C40.3591 16.454 40.3123 16.5663 40.2293 16.6491C40.1462 16.7319 40.0337 16.7783 39.9164 16.7782H38.9601C38.7658 17.7129 38.3958 18.6023 37.8699 19.3991L38.5476 20.0749C38.5888 20.1158 38.6215 20.1645 38.6437 20.2182C38.666 20.2718 38.6775 20.3293 38.6775 20.3874C38.6775 20.4455 38.666 20.503 38.6437 20.5566C38.6215 20.6102 38.5888 20.659 38.5476 20.6999L36.9815 22.2621C36.8984 22.3451 36.7857 22.3917 36.6682 22.3917C36.5508 22.3917 36.4381 22.3451 36.3549 22.2621L35.6772 21.5859C34.878 22.1108 33.9867 22.4799 33.0504 22.6736V23.6275C33.0503 23.6856 33.0388 23.7431 33.0165 23.7968C32.9942 23.8504 32.9616 23.8992 32.9204 23.9402C32.8793 23.9812 32.8305 24.0138 32.7768 24.036C32.7231 24.0581 32.6655 24.0695 32.6074 24.0694H30.3926C30.3345 24.0695 30.2769 24.0581 30.2232 24.036C30.1695 24.0138 30.1207 23.9812 30.0796 23.9402C30.0384 23.8992 30.0058 23.8504 29.9835 23.7968C29.9612 23.7431 29.9497 23.6856 29.9496 23.6275V22.6736C29.0131 22.4799 28.1217 22.1108 27.3223 21.5859L26.6451 22.2621C26.5619 22.3451 26.4493 22.3917 26.3318 22.3917C26.2143 22.3917 26.1017 22.3451 26.0185 22.2621L24.4524 20.6999C24.4112 20.659 24.3785 20.6102 24.3563 20.5566C24.334 20.503 24.3225 20.4455 24.3225 20.3874C24.3225 20.3293 24.334 20.2718 24.3563 20.2182C24.3785 20.1645 24.4112 20.1158 24.4524 20.0749L25.1301 19.3991C24.6042 18.6023 24.2342 17.7129 24.0399 16.7782H23.0836C23.0255 16.7782 22.9679 16.7669 22.9142 16.7447C22.8605 16.7225 22.8117 16.69 22.7706 16.6489C22.7294 16.6079 22.6968 16.5591 22.6745 16.5055C22.6522 16.4518 22.6407 16.3943 22.6406 16.3362L22.6401 14.1268Z" fill="white"/>
<path d="M31.4995 20.6326C32.5671 20.63 33.61 20.311 34.4964 19.7159C35.3828 19.1209 36.073 18.2765 36.4797 17.2894C36.8864 16.3023 36.9915 15.2168 36.7816 14.1701C36.5717 13.1233 36.0563 12.1622 35.3004 11.4082C34.5446 10.6542 33.5823 10.1412 32.535 9.93386C31.4877 9.72655 30.4025 9.83427 29.4164 10.2434C28.4303 10.6526 27.5876 11.3448 26.9947 12.2327C26.4019 13.1206 26.0854 14.1642 26.0854 15.2318C26.089 16.6654 26.6609 18.0391 27.6759 19.0515C28.6908 20.064 30.0659 20.6326 31.4995 20.6326ZM31.4995 11.7949C32.1789 11.7965 32.8426 11.9995 33.4067 12.3782C33.9708 12.7568 34.41 13.2942 34.6689 13.9223C34.9277 14.5505 34.9946 15.2413 34.861 15.9074C34.7275 16.5736 34.3995 17.1852 33.9185 17.665C33.4375 18.1449 32.8251 18.4714 32.1586 18.6033C31.4921 18.7353 30.8015 18.6667 30.174 18.4063C29.5464 18.146 29.0101 17.7054 28.6329 17.1404C28.2556 16.5754 28.0542 15.9112 28.0542 15.2318C28.0547 14.7799 28.1442 14.3325 28.3177 13.9152C28.4911 13.4979 28.745 13.1189 29.065 12.7997C29.3849 12.4806 29.7646 12.2276 30.1823 12.0551C30.6 11.8827 31.0476 11.7943 31.4995 11.7949ZM56.6016 57.5885C56.6012 57.3278 56.4973 57.0779 56.3127 56.8937C56.1281 56.7096 55.8779 56.6063 55.6172 56.6066H7.38281C7.12239 56.6066 6.87264 56.71 6.68849 56.8942C6.50435 57.0783 6.4009 57.3281 6.4009 57.5885C6.4009 57.8489 6.50435 58.0987 6.68849 58.2828C6.87264 58.4669 7.12239 58.5704 7.38281 58.5704H55.6172C55.8779 58.5707 56.1281 58.4674 56.3127 58.2832C56.4973 58.0991 56.6012 57.8492 56.6016 57.5885ZM47.7422 23.4641C46.6746 23.4668 45.6318 23.7857 44.7454 24.3808C43.859 24.9758 43.1688 25.8201 42.7621 26.8072C42.3553 27.7943 42.2502 28.8797 42.4601 29.9265C42.6699 30.9733 43.1853 31.9343 43.9411 32.6883C44.6969 33.4423 45.6592 33.9554 46.7064 34.1628C47.7537 34.3702 48.8389 34.2625 49.825 33.8534C50.8111 33.4444 51.6538 32.7522 52.2467 31.8644C52.8396 30.9766 53.1562 29.933 53.1562 28.8654C53.1529 27.4317 52.581 26.0579 51.566 25.0454C50.551 24.0328 49.1759 23.4641 47.7422 23.4641ZM47.7422 32.3023C47.0628 32.3007 46.3991 32.0977 45.835 31.7191C45.2709 31.3404 44.8317 30.803 44.5728 30.1749C44.314 29.5467 44.2471 28.8559 44.3807 28.1898C44.5142 27.5236 44.8422 26.912 45.3232 26.4322C45.8042 25.9523 46.4166 25.6258 47.0831 25.4939C47.7496 25.362 48.4402 25.4305 49.0677 25.6909C49.6953 25.9513 50.2316 26.3918 50.6088 26.9568C50.9861 27.5218 51.1875 28.186 51.1875 28.8654C51.1863 29.778 50.8227 30.6528 50.1766 31.2974C49.5305 31.9419 48.6548 32.3034 47.7422 32.3023ZM20.6719 28.8654C20.6745 27.794 20.3592 26.746 19.7659 25.8539C19.1726 24.9618 18.328 24.2658 17.3389 23.854C16.3499 23.4422 15.2608 23.3331 14.2098 23.5405C13.1587 23.7479 12.1927 24.2625 11.4342 25.0191C10.6757 25.7757 10.1588 26.7404 9.94877 27.791C9.73879 28.8416 9.84523 29.9308 10.2546 30.9209C10.664 31.911 11.3579 32.7573 12.2485 33.3528C13.1392 33.9483 14.1864 34.2662 15.2578 34.2662C16.6914 34.2662 18.0665 33.6976 19.0814 32.6851C20.0964 31.6727 20.6684 30.299 20.6719 28.8654ZM15.2578 32.3023C14.5784 32.3007 13.9147 32.0977 13.3506 31.7191C12.7865 31.3404 12.3473 30.803 12.0885 30.1749C11.8296 29.5467 11.7627 28.8559 11.8963 28.1898C12.0299 27.5236 12.3579 26.912 12.8388 26.4322C13.3198 25.9523 13.9323 25.6258 14.5987 25.4939C15.2652 25.362 15.9558 25.4305 16.5834 25.6909C17.2109 25.9513 17.7472 26.3918 18.1245 26.9568C18.5018 27.5218 18.7031 28.186 18.7031 28.8654C18.702 29.778 18.3383 30.6528 17.6922 31.2974C17.0461 31.9419 16.1704 32.3034 15.2578 32.3023ZM21.5317 32.7281C21.182 33.2914 20.7582 33.8053 20.2717 34.2558C21.3416 34.9375 22.2627 35.8283 22.9797 36.8748C23.434 36.4936 23.9132 36.143 24.414 35.8254C24.3664 35.6614 24.3241 35.4955 24.287 35.3278C23.5199 34.3137 22.5887 33.435 21.5317 32.7281ZM10.2444 34.2563C9.75772 33.8056 9.33377 33.2916 8.9839 32.7281C7.43352 33.7564 6.16147 35.1522 5.28102 36.791C4.40056 38.4299 3.93903 40.2611 3.9375 42.1215V43.5946C3.93782 43.8528 3.989 44.1085 4.08812 44.3469C4.18723 44.5853 4.33234 44.8019 4.51515 44.9843C4.69797 45.1666 4.91491 45.3112 5.1536 45.4097C5.39228 45.5082 5.64803 45.5588 5.90625 45.5584H18.2985C18.3708 44.8955 18.4933 44.239 18.6652 43.5946H5.90625V42.1215C5.90716 40.551 6.30541 39.0062 7.06391 37.6311C7.82242 36.2559 8.91653 35.0949 10.2444 34.2563ZM44.3348 43.5951C44.5067 44.2395 44.6292 44.896 44.7015 45.5589H57.0938C57.352 45.5593 57.6077 45.5087 57.8464 45.4102C58.0851 45.3117 58.302 45.1671 58.4848 44.9848C58.6677 44.8024 58.8128 44.5858 58.9119 44.3474C59.011 44.1089 59.0622 43.8533 59.0625 43.5951V42.1215C59.0611 40.261 58.5996 38.4297 57.7191 36.7908C56.8386 35.1518 55.5666 33.756 54.0161 32.7276C53.6664 33.2909 53.2426 33.8048 52.7561 34.2554C54.0841 35.0941 55.1782 36.2553 55.9367 37.6308C56.6951 39.0063 57.0931 40.5513 57.0938 42.122V43.5951H44.3348ZM38.713 35.3278C38.6759 35.4958 38.6336 35.6615 38.586 35.8249C39.0868 36.1427 39.566 36.4934 40.0203 36.8748C40.7375 35.8284 41.6588 34.9378 42.7288 34.2563C42.2421 33.8056 41.8181 33.2916 41.4683 32.7281C40.4113 33.435 39.4801 34.3137 38.713 35.3278ZM22.1484 50.469H40.8516C41.1098 50.4693 41.3655 50.4188 41.6042 50.3203C41.8429 50.2217 42.0598 50.0772 42.2427 49.8948C42.4255 49.7125 42.5706 49.4959 42.6697 49.2574C42.7688 49.019 42.82 48.7634 42.8203 48.5052V47.032C42.8189 45.1715 42.3575 43.3401 41.477 41.701C40.5966 40.062 39.3244 38.6661 37.7739 37.6377C37.4242 38.2012 37.0004 38.7152 36.5139 39.1659C37.8418 40.0047 38.9359 41.1658 39.6944 42.5411C40.4528 43.9165 40.8509 45.4614 40.8516 47.032V48.5052H22.1484V47.032C22.1492 45.4614 22.5473 43.9164 23.3059 42.5411C24.0644 41.1657 25.1586 40.0046 26.4866 39.1659C25.9999 38.7152 25.576 38.2012 25.2261 37.6377C23.6756 38.6661 22.4034 40.062 21.523 41.701C20.6425 43.3401 20.1811 45.1715 20.1797 47.032V48.5052C20.18 48.7634 20.2312 49.019 20.3303 49.2574C20.4294 49.4959 20.5745 49.7125 20.7573 49.8948C20.9402 50.0772 21.1571 50.2217 21.3958 50.3203C21.6345 50.4188 21.8902 50.4693 22.1484 50.469Z" fill="white"/>
<path d="M31.5 28.3745C30.4324 28.3771 29.3895 28.6961 28.503 29.2912C27.6166 29.8863 26.9265 30.7307 26.5197 31.7178C26.113 32.7049 26.008 33.7904 26.2179 34.8372C26.4279 35.884 26.9433 36.8451 27.6992 37.5991C28.4551 38.353 29.4175 38.866 30.4648 39.0733C31.5121 39.2806 32.5974 39.1728 33.5835 38.7635C34.5695 38.3543 35.4122 37.662 36.005 36.774C36.5978 35.8861 36.9141 34.8424 36.914 33.7748C36.9104 32.3413 36.3384 30.9677 35.3234 29.9554C34.3085 28.943 32.9335 28.3745 31.5 28.3745ZM31.5 37.2117C30.8206 37.2101 30.1569 37.0071 29.5928 36.6284C29.0287 36.2498 28.5895 35.7124 28.3306 35.0843C28.0718 34.4561 28.0049 33.7653 28.1385 33.0992C28.272 32.433 28.6 31.8214 29.081 31.3416C29.562 30.8617 30.1744 30.5352 30.8409 30.4033C31.5074 30.2713 32.198 30.3399 32.8255 30.6003C33.4531 30.8607 33.9893 31.3012 34.3666 31.8662C34.7439 32.4312 34.9453 33.0954 34.9453 33.7748C34.9441 34.6874 34.5805 35.5622 33.9344 36.2067C33.2883 36.8513 32.4126 37.2128 31.5 37.2117Z" fill="white"/>
</g>
<defs>
<clipPath id="clip0_41_255">
<rect width="63" height="55" fill="white"/>
</clipPath>
</defs>
</svg>
