<svg width="63" height="45" viewBox="0 0 63 45" fill="none" xmlns="http://www.w3.org/2000/svg">
<path d="M45.2912 44.7097H17.7088C15.8765 44.7097 14.3861 43.2302 14.3861 41.4112V36.7365C14.3861 27.3938 22.0626 19.7932 31.5 19.7932C40.9374 19.7932 48.6139 27.3938 48.6139 36.7365V41.4112C48.6139 43.2301 47.1235 44.7097 45.2912 44.7097ZM31.5 21.8259C23.1839 21.8259 16.4184 28.5151 16.4184 36.7369V41.4117C16.4184 42.1098 16.9973 42.6779 17.7088 42.6779H45.2907C46.0022 42.6779 46.5811 42.1098 46.5811 41.4117V36.7369C46.5816 28.5151 39.8161 21.8259 31.5 21.8259ZM31.1468 18.6058C25.9688 18.6058 21.7555 14.4327 21.7555 9.30241C21.7555 4.17273 25.9685 0 31.1469 0C36.3257 0 40.5386 4.17311 40.5386 9.30291C40.5386 14.4331 36.3252 18.6058 31.1469 18.6058H31.1468ZM31.1468 2.03226C27.0891 2.03226 23.7877 5.29403 23.7877 9.30291C23.7877 13.3124 27.0891 16.5741 31.1468 16.5741C35.2048 16.5741 38.5062 13.3123 38.5062 9.30291C38.5062 5.29403 35.2048 2.03226 31.1469 2.03226H31.1468Z" fill="white"/>
</svg>
