<svg width="63" height="45" viewBox="0 0 63 45" fill="none" xmlns="http://www.w3.org/2000/svg">
<g clip-path="url(#clip0_41_120)">
<path d="M12.4619 21.3546C8.43171 21.3546 5.15304 18.1058 5.15304 14.1137C5.15304 10.1212 8.43171 6.87221 12.4619 6.87221C16.4918 6.87221 19.7698 10.1206 19.7698 14.1137C19.7698 18.1063 16.4918 21.3546 12.4619 21.3546ZM12.4619 8.90447C9.55199 8.90447 7.1853 11.2414 7.1853 14.1137C7.1853 16.9855 9.55199 19.3223 12.4619 19.3223C15.371 19.3223 17.7375 16.9855 17.7375 14.1137C17.7375 11.2414 15.371 8.90447 12.4619 8.90447ZM15.4022 41.4033H2.65591C1.19141 41.4033 0 40.2195 0 38.7641V35.4403C0 28.636 5.59023 23.0999 12.4619 23.0999C15.1646 23.0999 17.7372 23.9433 19.8994 25.5386C20.1162 25.6987 20.2606 25.9384 20.3008 26.2049C20.3409 26.4714 20.2736 26.743 20.1136 26.9599C19.9535 27.1766 19.7139 27.3209 19.4475 27.3611C19.1811 27.4013 18.9096 27.3341 18.6927 27.1743C16.8822 25.8388 14.7279 25.1322 12.4619 25.1322C6.71102 25.1322 2.03226 29.7568 2.03226 35.4403V38.7641C2.03226 39.0985 2.31207 39.3709 2.65591 39.3709H15.4027C15.9634 39.3709 16.4189 39.8259 16.4189 40.3871C16.4189 40.9477 15.9634 41.4032 15.4022 41.4032V41.4033ZM60.3441 40.6342H47.5978C47.0371 40.6342 46.5816 40.1793 46.5816 39.6181C46.5816 39.0575 47.0371 38.602 47.5978 38.602H60.3446C60.6884 38.602 60.9683 38.3302 60.9683 37.9957V34.672C60.9683 28.9875 56.2895 24.3637 50.5386 24.3637C48.1367 24.3637 45.7919 25.1909 43.9356 26.6932C43.5 27.0461 42.8605 26.979 42.5067 26.5429C42.154 26.1068 42.2204 25.4667 42.6576 25.1135C44.8739 23.3199 47.6727 22.3315 50.5386 22.3315C57.4098 22.3315 63 27.8671 63 34.672V37.9957C63 39.4505 61.8087 40.6342 60.3441 40.6342ZM50.5381 20.8525C46.5082 20.8525 43.2302 17.6042 43.2302 13.6116C43.2302 9.61894 46.5082 6.37012 50.5381 6.37012C54.5683 6.37012 57.847 9.61855 57.847 13.6116C57.847 17.6046 54.5678 20.8525 50.5381 20.8525ZM50.5381 8.40238C47.629 8.40238 45.2625 10.7393 45.2625 13.6116C45.2625 16.4838 47.629 18.8202 50.5381 18.8202C53.448 18.8202 55.8147 16.4838 55.8147 13.6116C55.8147 10.7393 53.4475 8.40238 50.5381 8.40238Z" fill="white"/>
<path d="M45.2912 44.7097H17.7088C15.8765 44.7097 14.3861 43.2302 14.3861 41.4112V36.7365C14.3861 27.3938 22.0626 19.7932 31.5 19.7932C40.9374 19.7932 48.6139 27.3938 48.6139 36.7365V41.4112C48.6139 43.2301 47.1235 44.7097 45.2912 44.7097ZM31.5 21.8259C23.1839 21.8259 16.4184 28.5151 16.4184 36.7369V41.4117C16.4184 42.1098 16.9973 42.6779 17.7088 42.6779H45.2907C46.0022 42.6779 46.5811 42.1098 46.5811 41.4117V36.7369C46.5816 28.5151 39.8161 21.8259 31.5 21.8259ZM31.1468 18.6058C25.9688 18.6058 21.7555 14.4327 21.7555 9.30241C21.7555 4.17273 25.9685 0 31.1469 0C36.3257 0 40.5386 4.17311 40.5386 9.30291C40.5386 14.4331 36.3252 18.6058 31.1469 18.6058H31.1468ZM31.1468 2.03226C27.0891 2.03226 23.7877 5.29403 23.7877 9.30291C23.7877 13.3124 27.0891 16.5741 31.1468 16.5741C35.2048 16.5741 38.5062 13.3123 38.5062 9.30291C38.5062 5.29403 35.2048 2.03226 31.1469 2.03226H31.1468Z" fill="white"/>
</g>
<defs>
<clipPath id="clip0_41_120">
<rect width="63" height="45" fill="white"/>
</clipPath>
</defs>
</svg>
